<?xml version="1.0" encoding="utf-8"?>
<!-- Generator: Adobe Illustrator 25.2.1, SVG Export Plug-In . SVG Version: 6.00 Build 0)  -->
<svg version="1.1" id="Layer_1" xmlns="http://www.w3.org/2000/svg"
     xmlns:xlink="http://www.w3.org/1999/xlink" x="0px" y="0px"
     viewBox="0 0 1055.94 215.71" height="215.71" width="1055.94"
     style="enable-background:new 0 0 1055.94 215.71;" xml:space="preserve">
<style type="text/css">
	.st0{fill:#334155;}
	.st1{fill:#34D399;}
	.st2{fill:#10B981;}
	.st3{fill:#FFFFFF;}
	.st4{fill:#F1F2F2;}
</style>
    <g>
	<g>
		<path class="st0" d="M268.16,42.98h-15.99l-0.04,18.82h-10.66v12.54h10.64l-0.06,29.15c0,6.48,0.98,11.62,2.95,15.43
			c1.97,3.81,4.94,6.52,8.92,8.12c3.98,1.6,9.04,2.4,15.19,2.4h9.59V114.8h-10.45c-3.28,0-5.8-0.88-7.56-2.64
			c-1.76-1.76-2.64-4.28-2.64-7.56l0.06-30.25h20.6V61.8h-20.57L268.16,42.98z"/>
            <path class="st0" d="M322.4,68.32c-3.12,3.74-5.03,8.85-5.78,15.3V61.8h-13.53v66.78h17.09v-34.8c0-5.82,1.58-10.27,4.73-13.34
			c3.16-3.07,7.6-4.61,13.34-4.61h4.67V60.94h-2.46C332.52,60.94,326.5,63.4,322.4,68.32z"/>
            <path class="st0" d="M394.15,63.52c-4.55-1.8-10.27-2.7-17.15-2.7c-2.22,0-4.57,0.02-7.07,0.06c-2.5,0.04-4.94,0.15-7.32,0.31
			c-2.38,0.16-4.51,0.33-6.4,0.49v14.51c2.3-0.16,4.9-0.31,7.81-0.43c2.91-0.12,5.8-0.22,8.67-0.31c2.87-0.08,5.33-0.12,7.38-0.12
			c3.93,0,6.84,0.94,8.73,2.83c1.88,1.89,2.83,4.76,2.83,8.61v0.61h-13.65c-5.9,0-11.05,0.78-15.43,2.34
			c-4.39,1.56-7.79,3.9-10.21,7.01c-2.42,3.12-3.63,7.13-3.63,12.05c0,4.51,1,8.36,3.01,11.56c2.01,3.2,4.84,5.66,8.49,7.38
			c3.65,1.72,7.89,2.58,12.73,2.58c4.67,0,8.63-0.84,11.87-2.52c3.24-1.68,5.78-4.12,7.62-7.32c0.84-1.46,1.49-3.11,2.03-4.87v12.99
			h13.53V87.13c0-6.23-1.17-11.27-3.51-15.12C402.15,68.15,398.7,65.33,394.15,63.52z M384.31,116.83c-2.01,0.86-4.2,1.29-6.58,1.29
			c-3.94,0-6.95-0.94-9.04-2.83c-2.09-1.89-3.14-4.34-3.14-7.38c0-3.03,1.05-5.51,3.14-7.44c2.09-1.93,5.1-2.89,9.04-2.89h13.9v6.27
			c-0.16,3.61-0.92,6.45-2.27,8.55C388,114.5,386.32,115.97,384.31,116.83z"/>
            <path class="st0" d="M463.45,59.71h-0.74c-5.33,0-9.78,1.15-13.34,3.44c-3.57,2.3-6.25,5.72-8.06,10.27
			c-0.61,1.53-1.07,3.24-1.48,5.03V61.8h-13.53v66.78h17.09V89.35c0-4.35,1.29-7.81,3.87-10.39c2.58-2.58,5.96-3.87,10.14-3.87
			c4.1,0,7.32,1.27,9.65,3.81c2.34,2.54,3.51,5.86,3.51,9.96v39.72h17.09V90.33c0-10.16-2.05-17.81-6.15-22.94
			C477.42,62.27,471.4,59.71,463.45,59.71z"/>
            <path class="st0" d="M552.67,94.63c-4.47-3.52-10.64-5.7-18.51-6.52l-5.9-0.61c-3.61-0.41-6.21-1.19-7.81-2.34
			c-1.6-1.15-2.4-2.79-2.4-4.92c0-2.21,0.98-4.02,2.95-5.41c1.97-1.39,4.75-2.09,8.36-2.09c4.02,0,7.09,0.82,9.22,2.46
			c2.13,1.64,3.28,3.61,3.44,5.9h15.37c-0.25-6.97-2.91-12.26-7.99-15.86c-5.08-3.61-11.72-5.41-19.92-5.41
			c-5.25,0-9.9,0.8-13.96,2.4c-4.06,1.6-7.24,3.96-9.53,7.07c-2.3,3.12-3.44,6.97-3.44,11.56c0,5.74,2.01,10.33,6.03,13.77
			c4.02,3.44,9.76,5.58,17.22,6.39l5.9,0.62c4.43,0.41,7.56,1.27,9.41,2.58c1.85,1.31,2.77,3.07,2.77,5.29
			c0,2.54-1.21,4.55-3.63,6.03c-2.42,1.48-5.68,2.21-9.78,2.21c-4.92,0-8.53-0.94-10.82-2.83c-2.3-1.88-3.56-3.97-3.81-6.27h-15.37
			c0.25,6.89,2.97,12.28,8.18,16.17c5.2,3.89,12.4,5.84,21.58,5.84c5.9,0,11.03-0.9,15.37-2.7c4.34-1.8,7.73-4.32,10.15-7.56
			c2.42-3.24,3.63-7.07,3.63-11.5C559.37,102.92,557.13,98.16,552.67,94.63z"/>
            <path class="st0" d="M591.09,58.73c0-2.46,0.68-4.36,2.03-5.72c1.35-1.35,3.3-2.03,5.84-2.03h9.59V37.82h-8.36
			c-8.28,0-14.53,1.83-18.76,5.47c-4.22,3.65-6.33,9.28-6.33,16.91v2.7h-8.36v12.54h8.36v53.12h15.99V75.45h18.57V62.91h-18.57
			V58.73z"/>
            <path class="st0" d="M678.84,69.86c-3.16-3.24-6.99-5.78-11.5-7.62c-4.51-1.85-9.59-2.77-15.25-2.77
			c-5.66,0-10.74,0.92-15.25,2.77c-4.51,1.85-8.34,4.39-11.5,7.62c-3.16,3.24-5.57,6.93-7.26,11.07c-1.68,4.14-2.52,8.51-2.52,13.1
			v2.58c0,4.43,0.8,8.69,2.4,12.79c1.6,4.1,3.95,7.77,7.07,11.01c3.11,3.24,6.93,5.8,11.44,7.69c4.51,1.89,9.72,2.83,15.62,2.83
			c5.82,0,10.99-0.94,15.49-2.83c4.51-1.89,8.32-4.45,11.44-7.69c3.11-3.24,5.47-6.9,7.07-11.01c1.6-4.1,2.4-8.36,2.4-12.79v-2.58
			c0-4.59-0.82-8.96-2.46-13.1C684.39,76.78,681.99,73.1,678.84,69.86z M669.18,106.01c-1.48,3.16-3.65,5.66-6.52,7.5
			c-2.87,1.84-6.4,2.77-10.58,2.77c-4.18,0-7.71-0.92-10.57-2.77c-2.87-1.85-5.06-4.35-6.58-7.5c-1.52-3.15-2.27-6.74-2.27-10.76
			c0-4.1,0.78-7.73,2.34-10.88c1.56-3.15,3.79-5.66,6.7-7.5c2.91-1.84,6.37-2.77,10.39-2.77c4.02,0,7.48,0.92,10.39,2.77
			c2.91,1.85,5.12,4.35,6.64,7.5c1.52,3.16,2.28,6.78,2.28,10.88C671.4,99.27,670.66,102.86,669.18,106.01z"/>
            <path class="st0" d="M722.8,68.32c-3.12,3.74-5.03,8.85-5.78,15.3V61.8h-13.53v66.78h17.09v-34.8c0-5.82,1.58-10.27,4.73-13.34
			c3.16-3.07,7.6-4.61,13.34-4.61h4.67V60.94h-2.46C732.92,60.94,726.9,63.4,722.8,68.32z"/>
            <path class="st0" d="M846.27,63.22c-3.44-2.34-7.75-3.51-12.91-3.51h-0.74c-5.08,0-9.33,1.17-12.73,3.51
			c-3.4,2.34-5.99,5.78-7.75,10.33c-0.17,0.43-0.29,0.93-0.44,1.38c-0.14-0.45-0.26-0.94-0.42-1.38c-1.68-4.55-4.22-7.99-7.62-10.33
			c-3.4-2.34-7.69-3.51-12.85-3.51h-0.74c-5.08,0-9.33,1.17-12.73,3.51c-3.4,2.34-5.97,5.78-7.69,10.33
			c-0.55,1.45-0.98,3.06-1.35,4.73V61.8h-13.53v66.78h17.09V89.35c0-4.35,1.19-7.81,3.57-10.39c2.38-2.58,5.53-3.87,9.47-3.87
			c3.93,0,6.97,1.25,9.1,3.75c2.13,2.5,3.2,5.84,3.2,10.02v39.72h17.1V89.35c0-4.35,1.19-7.81,3.57-10.39
			c2.38-2.58,5.53-3.87,9.47-3.87c3.94,0,6.97,1.25,9.1,3.75c2.13,2.5,3.2,5.84,3.2,10.02v39.72h17.09V90.45
			c0-6.72-0.88-12.36-2.64-16.91C852.31,68.99,849.71,65.55,846.27,63.22z"/>
            <path class="st0" d="M922.32,64.2c-4.88-3.16-10.93-4.73-18.14-4.73c-5.49,0-10.33,0.96-14.51,2.89
			c-4.18,1.93-7.69,4.51-10.51,7.75c-2.83,3.24-4.96,6.93-6.4,11.07c-1.43,4.14-2.15,8.42-2.15,12.85v2.34
			c0,4.27,0.72,8.45,2.15,12.54c1.43,4.1,3.57,7.81,6.4,11.13c2.83,3.32,6.39,5.97,10.7,7.93c4.3,1.97,9.32,2.95,15.06,2.95
			c5.49,0,10.39-0.94,14.7-2.83c4.3-1.89,7.85-4.55,10.64-7.99c2.79-3.44,4.67-7.46,5.66-12.05h-15.74
			c-0.74,2.46-2.42,4.53-5.04,6.21c-2.62,1.68-6.03,2.52-10.21,2.52c-4.18,0-7.62-0.92-10.33-2.77c-2.7-1.85-4.72-4.39-6.03-7.62
			c-0.86-2.13-1.33-4.54-1.63-7.07h50.08v-6.15c0-5.9-1.23-11.41-3.69-16.54C930.87,71.5,927.2,67.36,922.32,64.2z M894.59,76.19
			c2.62-1.72,5.82-2.58,9.59-2.58c3.77,0,6.9,0.82,9.41,2.46c2.5,1.64,4.36,3.98,5.6,7.01c0.69,1.71,1.14,3.68,1.44,5.78h-33.49
			c0.34-1.89,0.83-3.64,1.49-5.23C889.98,80.39,891.97,77.91,894.59,76.19z"/>
            <path class="st0" d="M970.59,68.32c-3.12,3.74-5.03,8.85-5.78,15.3V61.8h-13.53v66.78h17.09v-34.8c0-5.82,1.58-10.27,4.73-13.34
			s7.6-4.61,13.34-4.61h4.67V60.94h-2.46C980.71,60.94,974.69,63.4,970.59,68.32z"/>
            <path class="st0" d="M1049.23,94.63c-4.47-3.52-10.64-5.7-18.51-6.52l-5.9-0.61c-3.61-0.41-6.21-1.19-7.81-2.34
			c-1.6-1.15-2.4-2.79-2.4-4.92c0-2.21,0.98-4.02,2.95-5.41c1.97-1.39,4.75-2.09,8.36-2.09c4.02,0,7.09,0.82,9.22,2.46
			c2.13,1.64,3.28,3.61,3.44,5.9h15.37c-0.25-6.97-2.91-12.26-7.99-15.86c-5.08-3.61-11.72-5.41-19.92-5.41
			c-5.25,0-9.9,0.8-13.96,2.4c-4.06,1.6-7.24,3.96-9.53,7.07c-2.3,3.12-3.44,6.97-3.44,11.56c0,5.74,2.01,10.33,6.03,13.77
			c4.02,3.44,9.76,5.58,17.22,6.39l5.9,0.62c4.43,0.41,7.56,1.27,9.41,2.58c1.85,1.31,2.77,3.07,2.77,5.29
			c0,2.54-1.21,4.55-3.63,6.03c-2.42,1.48-5.68,2.21-9.78,2.21c-4.92,0-8.53-0.94-10.82-2.83c-2.3-1.88-3.56-3.97-3.81-6.27h-15.37
			c0.25,6.89,2.97,12.28,8.18,16.17c5.2,3.89,12.4,5.84,21.58,5.84c5.9,0,11.03-0.9,15.37-2.7c4.34-1.8,7.73-4.32,10.15-7.56
			c2.42-3.24,3.63-7.07,3.63-11.5C1055.94,102.92,1053.7,98.16,1049.23,94.63z"/>
	</g>
        <g>
		<path class="st1" d="M85.36,53.49l-28.4,28.4l-16.99,0l-22.74,22.74c-4.5-2-9.96-1.16-13.65,2.53c-4.78,4.78-4.78,12.55,0,17.34
			c2.39,2.39,5.53,3.58,8.67,3.58c3.15,0,6.28-1.19,8.67-3.58c3.69-3.69,4.53-9.15,2.53-13.65l20.17-20.17l16.98,0.01L89,62.28
			l27.52,0l-39.02,39l-15.02,0.01l-8.91,8.91c-4.5-2-9.96-1.16-13.65,2.53c-4.78,4.78-4.78,12.55,0,17.34
			c2.38,2.38,5.52,3.58,8.67,3.58c3.13,0,6.28-1.19,8.67-3.58c3.69-3.69,4.53-9.15,2.53-13.65l6.33-6.33l15.02-0.01l47.8-47.8
			l18.28,0.01l-97.3,97.3c-4.5-2-9.96-1.16-13.65,2.53c-2.31,2.31-3.59,5.39-3.59,8.66s1.27,6.36,3.59,8.68
			c2.38,2.38,5.53,3.58,8.67,3.58c3.14-0.01,6.28-1.19,8.67-3.58c3.69-3.69,4.53-9.15,2.53-13.65l97.3-97.3l-0.01,25.94L88.3,159.57
			c-4.5-2-9.96-1.16-13.65,2.53c-4.78,4.78-4.78,12.56,0,17.34c2.39,2.39,5.53,3.59,8.67,3.58c3.14,0.01,6.28-1.19,8.67-3.58
			c3.69-3.69,4.53-9.15,2.53-13.65l58.92-58.92l0.01,19.86l-28.41,28.41l0,16.97l-20.17,20.17c-4.5-2-9.96-1.16-13.65,2.53
			c-4.78,4.78-4.78,12.56,0,17.34c2.39,2.39,5.54,3.58,8.67,3.58c3.15,0,6.28-1.19,8.67-3.58c3.69-3.69,4.53-9.15,2.53-13.65
			l22.74-22.74l0-16.99l28.4-28.4l0.01-76.85L85.36,53.49z M14.71,118.29c-1.35,1.35-3.56,1.35-4.91,0c-1.35-1.35-1.35-3.56,0-4.91
			c0.68-0.68,1.57-1.02,2.46-1.02c0.87,0,1.77,0.34,2.45,1.02C16.06,114.73,16.07,116.93,14.71,118.29z M51.05,123.85
			c-1.35,1.35-3.56,1.35-4.91,0c-1.36-1.36-1.35-3.56,0-4.91c0.68-0.68,1.56-1.02,2.45-1.02s1.78,0.33,2.46,1.02
			C52.4,120.29,52.4,122.5,51.05,123.85z M47.4,173.23c-1.35,1.35-3.56,1.35-4.91,0c-0.66-0.66-1.02-1.53-1.02-2.46
			c0-0.92,0.37-1.8,1.02-2.45c0.68-0.68,1.57-1.03,2.46-1.03c0.89,0,1.77,0.34,2.46,1.03C48.75,169.67,48.76,171.87,47.4,173.23z
			 M85.77,173.22c-1.36,1.36-3.55,1.36-4.91,0c-1.35-1.35-1.36-3.55,0-4.91c0.68-0.68,1.57-1.01,2.46-1.01s1.78,0.33,2.46,1.01
			C87.13,169.67,87.12,171.87,85.77,173.22z M102.34,205.91c-1.35,1.35-3.55,1.36-4.91,0c-1.35-1.35-1.35-3.56,0-4.91
			c0.68-0.68,1.57-1.02,2.46-1.02c0.88,0.01,1.77,0.34,2.45,1.02C103.69,202.36,103.69,204.56,102.34,205.91z"/>
            <g>
			<path class="st2" d="M173.8,15.41l-9.61,9.61c-5.32-3.07-11.01-5.42-16.97-7.02l0.01-13.59c0-2.43-1.96-4.39-4.39-4.39L114.12,0
				c-1.17,0.01-2.28,0.47-3.11,1.3c-0.83,0.83-1.29,1.94-1.29,3.1l0,13.6c-5.95,1.6-11.63,3.96-16.96,7.02l-9.61-9.61
				c-1.72-1.72-4.5-1.72-6.21,0l-20.3,20.3c-1.72,1.72-1.72,4.5,0,6.21l9.61,9.61c-5.42,9.45-8.47,19.83-9.22,30.31l10.59-10.59
				c1.63-6.27,4.24-12.36,7.87-18.01c1.12-1.74,0.87-4.02-0.59-5.48l-8.94-8.94l14.09-14.09l8.94,8.94
				c1.46,1.46,3.74,1.71,5.48,0.59c6.3-4.04,13.22-6.91,20.58-8.52c2.02-0.43,3.46-2.22,3.46-4.29V8.8l19.92-0.01l0,12.66
				c0,2.07,1.45,3.85,3.46,4.29c7.35,1.6,14.28,4.46,20.58,8.52c1.73,1.11,4.02,0.87,5.48-0.59l8.95-8.95l14.09,14.09l-8.95,8.95
				c-1.46,1.46-1.71,3.74-0.59,5.48c4.05,6.29,6.91,13.22,8.52,20.58c0.44,2.01,2.22,3.46,4.28,3.46h12.66l0,19.93l-12.66-0.01
				c-2.07,0-3.86,1.45-4.29,3.46c-1.61,7.36-4.47,14.29-8.52,20.58c-1.12,1.74-0.87,4.02,0.59,5.48l8.94,8.94l-14.09,14.09
				l-8.94-8.94c-1.46-1.46-3.74-1.71-5.48-0.59c-5.64,3.62-11.72,6.24-17.99,7.87l-10.6,10.6c10.48-0.75,20.84-3.81,30.3-9.22
				l9.61,9.61c1.72,1.72,4.5,1.72,6.21,0l20.3-20.3c1.72-1.72,1.72-4.5,0-6.21l-9.61-9.61c3.07-5.32,5.42-11.01,7.02-16.96l13.6,0
				c1.16,0,2.27-0.46,3.1-1.29c0.83-0.83,1.29-1.94,1.3-3.11l-0.01-28.71c0.01-2.42-1.96-4.39-4.39-4.39l-13.59,0.01
				c-1.6-5.96-3.95-11.64-7.02-16.97l9.61-9.61c1.72-1.72,1.72-4.5,0.01-6.21l-20.3-20.3C178.3,13.69,175.52,13.69,173.8,15.41z"/>
		</g>
	</g>
</g>
</svg>
